ffmpeg version 3.4.8-0ubuntu0.2 Copyright (c) 2000-2020 the FFmpeg developers
  built with gcc 7 (Ubuntu 7.5.0-3ubuntu1~18.04)
  configuration: --prefix=/usr --extra-version=0ubuntu0.2 --toolchain=hardened --libdir=/usr/lib/x86_64-linux-gnu --incdir=/usr/include/x86_64-linux-gnu --enable-gpl --disable-stripping --enable-avresample --enable-avisynth --enable-gnutls --enable-ladspa --enable-libass --enable-libbluray --enable-libbs2b --enable-libcaca --enable-libcdio --enable-libflite --enable-libfontconfig --enable-libfreetype --enable-libfribidi --enable-libgme --enable-libgsm --enable-libmp3lame --enable-libmysofa --enable-libopenjpeg --enable-libopenmpt --enable-libopus --enable-libpulse --enable-librubberband --enable-librsvg --enable-libshine --enable-libsnappy --enable-libsoxr --enable-libspeex --enable-libssh --enable-libtheora --enable-libtwolame --enable-libvorbis --enable-libvpx --enable-libwavpack --enable-libwebp --enable-libx265 --enable-libxml2 --enable-libxvid --enable-libzmq --enable-libzvbi --enable-omx --enable-openal --enable-opengl --enable-sdl2 --enable-libdc1394 --enable-libdrm --enable-libiec61883 --enable-chromaprint --enable-frei0r --enable-libopencv --enable-libx264 --enable-shared
  libavutil      55. 78.100 / 55. 78.100
  libavcodec     57.107.100 / 57.107.100
  libavformat    57. 83.100 / 57. 83.100
  libavdevice    57. 10.100 / 57. 10.100
  libavfilter     6.107.100 /  6.107.100
  libavresample   3.  7.  0 /  3.  7.  0
  libswscale      4.  8.100 /  4.  8.100
  libswresample   2.  9.100 /  2.  9.100
  libpostproc    54.  7.100 / 54.  7.100
[rawvideo @ 0x55dca1b09a20] Estimating duration from bitrate, this may be inaccurate
Input #0, rawvideo, from '../../SVC-Encoder-20220109T061506Z-001/SVC-Encoder/Dataset/RollerCoaster/ERP_8x8/tile_yuv/Tile_29_480x240.yuv':
  Duration: 00:00:10.00, start: 0.000000, bitrate: 41472 kb/s
    Stream #0:0: Video: rawvideo (I420 / 0x30323449), yuv420p, 480x240, 41472 kb/s, 30 tbr, 30 tbn, 30 tbc
Stream mapping:
  Stream #0:0 -> #0:0 (rawvideo (native) -> h264 (libx264))
Press [q] to stop, [?] for help
[libx264 @ 0x55dca1b16c60] using cpu capabilities: MMX2 SSE2Fast LZCNT SSSE3 SSE4.2 AVX
[libx264 @ 0x55dca1b16c60] profile High, level 2.1
Output #0, rawvideo, to 'RollerCoaster_Tile_29_480x240_x264_QP_20.h264':
  Metadata:
    encoder         : Lavf57.83.100
    Stream #0:0: Video: h264 (libx264), yuv420p, 480x240, q=-1--1, 30 fps, 30 tbn, 30 tbc
    Metadata:
      encoder         : Lavc57.107.100 libx264
    Side data:
      cpb: bitrate max/min/avg: 0/0/0 buffer size: 0 vbv_delay: -1
frame=  198 fps=0.0 q=26.0 PSNR=Y:nan U:nan V:nan *:nan size=     102kB time=00:00:05.16 bitrate= 162.4kbits/s speed=10.3x    frame=  300 fps=0.0 q=26.0 LPSNR=Y:inf U:inf V:inf *:inf size=     175kB time=00:00:09.93 bitrate= 144.4kbits/s speed=13.2x    
video:175kB audio:0kB subtitle:0kB other streams:0kB global headers:0kB muxing overhead: 0.000000%
[libx264 @ 0x55dca1b16c60] frame I:2     Avg QP:19.35  size:  6380  PSNR Mean Y:52.33 U:54.13 V:56.39 Avg:53.07 Global:53.07
[libx264 @ 0x55dca1b16c60] frame P:97    Avg QP:20.70  size:  1377  PSNR Mean Y:49.38 U:52.23 V:53.91 Avg:50.28 Global:50.04
[libx264 @ 0x55dca1b16c60] frame B:201   Avg QP:25.47  size:   164  PSNR Mean Y:49.47 U:52.64 V:54.23 Avg:50.42 Global:50.29
[libx264 @ 0x55dca1b16c60] consecutive B-frames:  6.7%  8.7% 10.0% 74.7%
[libx264 @ 0x55dca1b16c60] mb I  I16..4: 72.8% 21.6%  5.7%
[libx264 @ 0x55dca1b16c60] mb P  I16..4:  6.6%  1.8%  0.1%  P16..4: 21.2%  7.3%  3.9%  0.0%  0.0%    skip:59.1%
[libx264 @ 0x55dca1b16c60] mb B  I16..4:  0.0%  0.0%  0.0%  B16..8: 16.1%  1.4%  0.1%  direct: 0.1%  skip:82.3%  L0:43.8% L1:51.7% BI: 4.6%
[libx264 @ 0x55dca1b16c60] 8x8 transform intra:20.9% inter:60.9%
[libx264 @ 0x55dca1b16c60] coded y,uvDC,uvAC intra: 8.2% 45.9% 5.2% inter: 4.6% 5.0% 0.1%
[libx264 @ 0x55dca1b16c60] i16 v,h,dc,p: 42% 33% 15%  9%
[libx264 @ 0x55dca1b16c60] i8 v,h,dc,ddl,ddr,vr,hd,vl,hu:  7% 15% 64%  3%  2%  1%  2%  2%  4%
[libx264 @ 0x55dca1b16c60] i4 v,h,dc,ddl,ddr,vr,hd,vl,hu: 18% 20% 20%  7%  5%  9%  6%  5%  9%
[libx264 @ 0x55dca1b16c60] i8c dc,h,v,p: 56% 27% 15%  2%
[libx264 @ 0x55dca1b16c60] Weighted P-Frames: Y:4.1% UV:0.0%
[libx264 @ 0x55dca1b16c60] ref P L0: 68.0% 14.3% 13.0%  4.5%  0.2%
[libx264 @ 0x55dca1b16c60] ref B L0: 85.6% 12.8%  1.6%
[libx264 @ 0x55dca1b16c60] ref B L1: 93.9%  6.1%
[libx264 @ 0x55dca1b16c60] PSNR Mean Y:49.463 U:52.515 V:54.141 Avg:50.391 Global:50.223 kb/s:143.43
